<mxfile host="app.diagrams.net" modified="2024-03-21T13:19:59.792Z" agent="Mozilla/5.0 (X11; CrOS x86_64 14541.0.0) AppleWebKit/537.36 (KHTML, like Gecko) Chrome/122.0.0.0 Safari/537.36" version="24.0.7" etag="MYe-nZ-44qDf_pnEoiFA" type="github">
  <diagram name="Page-1" id="eVu9RhI5cyVv5yQYJqVk">
    <mxGraphModel>
      <root>
        <mxCell id="0" />
        <mxCell id="1" parent="0" />
      </root>
    </mxGraphModel>
  </diagram>
</mxfile>
